<svg xmlns="http://www.w3.org/2000/svg" width="64" height="64" viewBox="0 0 64 64" fill="none">
  <path d="M12.7791 49.1994L12.7789 49.1992C11.3361 48.1235 10.028 46.4383 9.08022 44.5492C8.13238 42.66 7.56665 40.6103 7.56665 38.8268V18.9868C7.56665 15.0875 10.4515 10.902 14.1211 9.53532L14.1221 9.53496L27.4284 4.54845C27.4284 4.54842 27.4285 4.54839 27.4286 4.54835C28.6771 4.0818 30.3141 3.84009 31.9733 3.84009C33.6326 3.84009 35.2695 4.0818 36.518 4.54835C36.5181 4.54839 36.5182 4.54842 36.5183 4.54845L49.8245 9.53496L49.8255 9.53532C53.4952 10.902 56.38 15.0875 56.38 18.9868V38.8001C56.38 40.5972 55.8141 42.6469 54.8666 44.5322C53.9191 46.4175 52.611 48.0965 51.1678 49.1726L51.1675 49.1728L39.7009 57.7327L39.7008 57.7327L39.6947 57.7375C37.582 59.3665 34.814 60.1934 32 60.1934C29.1873 60.1934 26.415 59.3671 24.2447 57.7587C24.2446 57.7586 24.2445 57.7585 24.2444 57.7584L12.7791 49.1994ZM28.4919 7.37164L28.4912 7.37189L15.1845 12.3586L15.1838 12.3588C13.9312 12.8304 12.79 13.8427 11.9653 15.0358C11.1405 16.2292 10.5933 17.6599 10.5933 19.0134V38.8268C10.5933 40.1962 11.0714 41.7944 11.7897 43.2275C12.5078 44.6603 13.4983 45.9924 14.5808 46.8007L14.5809 46.8008L26.0472 55.3605C27.6842 56.5847 29.8557 57.1801 32.0033 57.1801C34.1511 57.1801 36.3283 56.5846 37.9778 55.3617L37.9791 55.3608L49.4458 46.8008L49.4467 46.8001C50.5414 45.979 51.5319 44.6477 52.2472 43.217C52.9625 41.7864 53.4333 40.1952 53.4333 38.8268V18.9868C53.4333 17.6456 52.8854 16.2214 52.0613 15.0291C51.237 13.8366 50.0973 12.8192 48.8476 12.334L48.8476 12.334L48.8421 12.3319L35.5354 7.34522L35.5355 7.34513L35.5264 7.34193C34.5482 6.99669 33.2602 6.83333 32.002 6.83676C30.7446 6.84018 29.4602 7.01033 28.4919 7.37164Z" fill="#FAFAFA" stroke="#FAFAFA"/>
  <path d="M28.0731 33.4735L28.4267 33.827L28.7802 33.4735L38.8336 23.4201C39.4116 22.8421 40.3751 22.8421 40.9531 23.4201C41.5312 23.9982 41.5312 24.9616 40.9531 25.5397L29.4865 37.0064C29.1852 37.3076 28.8079 37.4466 28.4267 37.4466C28.0455 37.4466 27.6682 37.3076 27.3669 37.0064L23.0736 32.713L22.72 33.0666L23.0736 32.713C22.4955 32.1349 22.4955 31.1715 23.0736 30.5935C23.6516 30.0154 24.6151 30.0154 25.1931 30.5935L28.0731 33.4735Z" fill="#FAFAFA" stroke="#FAFAFA"/>
</svg>