<svg xmlns="http://www.w3.org/2000/svg" width="65" height="64" viewBox="0 0 65 64" fill="none">
  <g clip-path="url(#clip0_21_604)">
    <path d="M18.9583 50.6667C21.9499 50.6667 24.375 48.2789 24.375 45.3333C24.375 42.3878 21.9499 40 18.9583 40C15.9668 40 13.5417 42.3878 13.5417 45.3333C13.5417 48.2789 15.9668 50.6667 18.9583 50.6667Z" stroke="#FAFAFA" stroke-width="2" stroke-linecap="round" stroke-linejoin="round"/>
    <path d="M46.0417 50.6667C49.0332 50.6667 51.4583 48.2789 51.4583 45.3333C51.4583 42.3878 49.0332 40 46.0417 40C43.0501 40 40.625 42.3878 40.625 45.3333C40.625 48.2789 43.0501 50.6667 46.0417 50.6667Z" stroke="#FAFAFA" stroke-width="2" stroke-linecap="round" stroke-linejoin="round"/>
    <path d="M13.5416 45.3335H10.125C9.02039 45.3335 8.12496 44.4381 8.12496 43.3335V34.6668M5.41663 13.3335H33.2083C34.3129 13.3335 35.2083 14.2289 35.2083 15.3335V45.3335M24.375 45.3335H40.625M51.4583 45.3335H54.875C55.9795 45.3335 56.875 44.4381 56.875 43.3335V29.3335M56.875 29.3335H35.2083M56.875 29.3335L49.3345 16.9594C48.9715 16.3637 48.3243 16.0002 47.6266 16.0002H35.2083" stroke="#FAFAFA" stroke-width="2" stroke-linecap="round" stroke-linejoin="round"/>
    <path d="M13 44.8H9.58333C8.47876 44.8 7.58333 43.9046 7.58333 42.8V34.1334M4.875 12.8H32.6667C33.7712 12.8 34.6667 13.6955 34.6667 14.8V44.8M24.375 44.8H40.0833M52 44.8H54.3333C55.4379 44.8 56.3333 43.9046 56.3333 42.8V28.8M56.3333 28.8H34.6667M56.3333 28.8L48.7929 16.426C48.4299 15.8302 47.7826 15.4667 47.085 15.4667H34.6667" stroke="#FAFAFA" stroke-width="2" stroke-linecap="round" stroke-linejoin="round"/>
    <path d="M8.125 18.9092H18.9583" stroke="#FAFAFA" stroke-width="2" stroke-linecap="round" stroke-linejoin="round"/>
    <path d="M2.95456 24.7273H13.7879" stroke="#FAFAFA" stroke-width="2" stroke-linecap="round" stroke-linejoin="round"/>
    <path d="M8.125 30.5454H18.9583" stroke="#FAFAFA" stroke-width="2" stroke-linecap="round" stroke-linejoin="round"/>
  </g>
  <defs>
    <clipPath id="clip0_21_604">
      <rect width="65" height="64" fill="white"/>
    </clipPath>
  </defs>
</svg>