<svg xmlns="http://www.w3.org/2000/svg" width="8" height="7" viewBox="0 0 8 7" fill="none">
  <path d="M7.6 3.11111H2.964L3.884 2.22056C3.9213 2.1843 3.95088 2.14125 3.97106 2.09387C3.99125 2.0465 4.00164 1.99572 4.00164 1.94444C4.00164 1.89317 3.99125 1.84239 3.97106 1.79501C3.95088 1.74764 3.9213 1.70459 3.884 1.66833C3.8467 1.63207 3.80243 1.60331 3.7537 1.58369C3.70497 1.56406 3.65274 1.55396 3.6 1.55396C3.54726 1.55396 3.49503 1.56406 3.4463 1.58369C3.39757 1.60331 3.3533 1.63207 3.316 1.66833L1.716 3.22389C1.67958 3.26087 1.65104 3.30449 1.632 3.35222C1.59199 3.4469 1.59199 3.5531 1.632 3.64778C1.65104 3.69551 1.67958 3.73913 1.716 3.77611L3.316 5.33167C3.35319 5.36812 3.39743 5.39705 3.44617 5.41679C3.49491 5.43653 3.5472 5.4467 3.6 5.4467C3.6528 5.4467 3.70509 5.43653 3.75383 5.41679C3.80257 5.39705 3.84681 5.36812 3.884 5.33167C3.92149 5.29551 3.95125 5.2525 3.97156 5.20511C3.99186 5.15772 4.00232 5.10689 4.00232 5.05556C4.00232 5.00422 3.99186 4.95339 3.97156 4.906C3.95125 4.85861 3.92149 4.8156 3.884 4.77944L2.964 3.88889H7.6C7.70609 3.88889 7.80783 3.84792 7.88284 3.77499C7.95786 3.70206 8 3.60314 8 3.5C8 3.39686 7.95786 3.29795 7.88284 3.22501C7.80783 3.15208 7.70609 3.11111 7.6 3.11111ZM0.4 0C0.293913 0 0.192172 0.0409721 0.117157 0.113903C0.0421427 0.186834 0 0.285749 0 0.388889V6.61111C0 6.71425 0.0421427 6.81317 0.117157 6.8861C0.192172 6.95903 0.293913 7 0.4 7C0.506087 7 0.607828 6.95903 0.682843 6.8861C0.757857 6.81317 0.8 6.71425 0.8 6.61111V0.388889C0.8 0.285749 0.757857 0.186834 0.682843 0.113903C0.607828 0.0409721 0.506087 0 0.4 0Z" fill="black"/>
</svg>